<svg height="457.14286pt" viewBox="0 0 457.14286 457.14286" width="457.14286pt" xmlns="http://www.w3.org/2000/svg"><path d="m431.335938 9.144531h-405.527344c-9.203125 0-16.664063 7.460938-16.664063 16.664063v62.761718h438.855469v-62.761718c0-9.203125-7.460938-16.664063-16.664062-16.664063zm0 0" fill="#8e613e"/><path d="m448 97.714844h-438.855469c-5.054687 0-9.144531-4.089844-9.144531-9.144532v-62.757812c0-14.230469 11.582031-25.8125 25.8125-25.8125h405.519531c14.230469 0 25.8125 11.582031 25.8125 25.8125v62.757812c0 5.054688-4.089843 9.144532-9.144531 9.144532zm-429.714844-18.285156h420.570313v-53.617188c0-4.152344-3.375-7.527344-7.523438-7.527344h-405.519531c-4.152344 0-7.527344 3.375-7.527344 7.527344zm0 0" fill="#2a3d4f"/><path d="m9.144531 88.570312v342.765626c0 9.203124 7.460938 16.664062 16.664063 16.664062h405.527344c9.203124 0 16.664062-7.460938 16.664062-16.664062v-342.765626zm0 0" fill="#ffd766"/><g fill="#2a3d4f"><path d="m431.332031 457.144531h-405.519531c-14.230469 0-25.8125-11.582031-25.8125-25.8125v-342.761719c0-5.050781 4.089844-9.140624 9.144531-9.140624h438.855469c5.054688 0 9.144531 4.089843 9.144531 9.140624v342.761719c0 14.230469-11.582031 25.8125-25.8125 25.8125zm-413.046875-359.429687v333.617187c0 4.148438 3.375 7.523438 7.527344 7.523438h405.519531c4.148438 0 7.523438-3.375 7.523438-7.523438v-333.617187zm0 0"/><path d="m396.855469 58h-262.285157c-5.050781 0-9.140624-4.089844-9.140624-9.144531 0-5.050781 4.089843-9.140625 9.140624-9.140625h262.285157c5.054687 0 9.144531 4.089844 9.144531 9.140625 0 5.054687-4.089844 9.144531-9.144531 9.144531zm0 0"/><path d="m60.25 57.964844c-2.375 0-4.757812-.910156-6.402344-2.652344-1.730468-1.742188-2.742187-4.027344-2.742187-6.492188 0-2.375 1.011719-4.757812 2.742187-6.402343 2.109375-2.097657 5.214844-3.105469 8.234375-2.5625.542969.1875 1.1875.367187 1.730469.554687.554688.277344 1.007812.546875 1.554688.820313.464843.367187.917968.734375 1.375 1.1875.820312.824219 1.550781 1.832031 2.007812 2.929687s.644531 2.285156.644531 3.472656c0 2.464844-.914062 4.75-2.652343 6.492188-1.742188 1.742188-4.027344 2.652344-6.492188 2.652344zm0 0"/><path d="m96.820312 57.964844c-2.472656 0-4.757812-.910156-6.402343-2.652344-1.730469-1.742188-2.738281-4.027344-2.738281-6.492188 0-2.375 1.007812-4.757812 2.738281-6.402343.824219-.910157 1.832031-1.550781 2.929687-2.007813 1.644532-.730468 3.472656-.917968 5.304688-.554687.542968.1875 1.1875.367187 1.730468.554687.554688.277344 1.011719.546875 1.554688.820313.464844.367187.917969.734375 1.375 1.1875 1.742188 1.644531 2.652344 4.027343 2.652344 6.402343 0 2.464844-.910156 4.75-2.652344 6.492188s-4.027344 2.652344-6.492188 2.652344zm0 0"/><path d="m83.871094 274.378906 95.671875-49.296875v14.238281l-80.628907 40.417969v.402344l80.628907 40.429687v14.222657l-95.671875-49.28125zm0 0"/><path d="m193.027344 343.035156 57.523437-149.5h14.019531l-57.726562 149.5zm0 0"/><path d="m373.269531 285.714844-95.671875 49.078125v-14.222657l81.234375-40.429687v-.402344l-81.234375-40.417969v-14.238281l95.671875 49.082031zm0 0"/></g></svg>